<mxfile host="app.diagrams.net" agent="Mozilla/5.0 (X11; Linux x86_64; rv:129.0) Gecko/20100101 Firefox/129.0" version="25.0.3">
  <diagram name="Page-1" id="IG3MzUUw2ymZqQd2v7ET">
    <mxGraphModel dx="1188" dy="1156" grid="1" gridSize="10" guides="1" tooltips="1" connect="1" arrows="1" fold="1" page="0" pageScale="1" pageWidth="850" pageHeight="1100" math="0" shadow="0">
      <root>
        <mxCell id="0" />
        <mxCell id="1" parent="0" />
        <mxCell id="PVGm662-4inRBWsWVYEp-162" style="edgeStyle=orthogonalEdgeStyle;rounded=0;orthogonalLoop=1;jettySize=auto;html=1;entryX=0.5;entryY=1;entryDx=0;entryDy=0;fillColor=#f5f5f5;strokeColor=#666666;" edge="1" parent="1" source="PVGm662-4inRBWsWVYEp-157" target="PVGm662-4inRBWsWVYEp-160">
          <mxGeometry relative="1" as="geometry" />
        </mxCell>
        <mxCell id="PVGm662-4inRBWsWVYEp-161" style="edgeStyle=orthogonalEdgeStyle;rounded=0;orthogonalLoop=1;jettySize=auto;html=1;entryX=0;entryY=0.25;entryDx=0;entryDy=0;" edge="1" parent="1" source="m7AmhTVpTq-Uz_7KJyDs-42" target="PVGm662-4inRBWsWVYEp-150">
          <mxGeometry relative="1" as="geometry">
            <Array as="points">
              <mxPoint x="860" y="370" />
            </Array>
          </mxGeometry>
        </mxCell>
        <mxCell id="PVGm662-4inRBWsWVYEp-63" style="edgeStyle=orthogonalEdgeStyle;rounded=0;orthogonalLoop=1;jettySize=auto;html=1;entryX=0;entryY=0.25;entryDx=0;entryDy=0;fillColor=#dae8fc;strokeColor=#6c8ebf;" edge="1" parent="1" source="PVGm662-4inRBWsWVYEp-13" target="PVGm662-4inRBWsWVYEp-49">
          <mxGeometry relative="1" as="geometry">
            <Array as="points">
              <mxPoint x="700" y="610" />
            </Array>
          </mxGeometry>
        </mxCell>
        <mxCell id="PVGm662-4inRBWsWVYEp-64" style="edgeStyle=orthogonalEdgeStyle;rounded=0;orthogonalLoop=1;jettySize=auto;html=1;entryX=0;entryY=0.25;entryDx=0;entryDy=0;fillColor=#dae8fc;strokeColor=#6c8ebf;" edge="1" parent="1" source="PVGm662-4inRBWsWVYEp-13" target="PVGm662-4inRBWsWVYEp-50">
          <mxGeometry relative="1" as="geometry">
            <Array as="points">
              <mxPoint x="700" y="730" />
            </Array>
          </mxGeometry>
        </mxCell>
        <mxCell id="PVGm662-4inRBWsWVYEp-29" style="edgeStyle=orthogonalEdgeStyle;rounded=0;orthogonalLoop=1;jettySize=auto;html=1;entryX=0;entryY=0.5;entryDx=0;entryDy=0;fillColor=#e1d5e7;strokeColor=#9673a6;" edge="1" parent="1" source="m7AmhTVpTq-Uz_7KJyDs-56" target="PVGm662-4inRBWsWVYEp-21">
          <mxGeometry relative="1" as="geometry" />
        </mxCell>
        <mxCell id="m7AmhTVpTq-Uz_7KJyDs-56" value="Galena Ore" style="rounded=0;whiteSpace=wrap;html=1;fillColor=#e1d5e7;strokeColor=#9673a6;" parent="1" vertex="1">
          <mxGeometry x="400" y="480" width="80" height="40" as="geometry" />
        </mxCell>
        <mxCell id="PVGm662-4inRBWsWVYEp-28" style="edgeStyle=orthogonalEdgeStyle;rounded=0;orthogonalLoop=1;jettySize=auto;html=1;entryX=0;entryY=0.5;entryDx=0;entryDy=0;fillColor=#ffe6cc;strokeColor=#d79b00;" edge="1" parent="1" source="m7AmhTVpTq-Uz_7KJyDs-57" target="PVGm662-4inRBWsWVYEp-22">
          <mxGeometry relative="1" as="geometry" />
        </mxCell>
        <mxCell id="m7AmhTVpTq-Uz_7KJyDs-57" value="&lt;span id=&quot;ref234210&quot;&gt;&lt;/span&gt;Chalcotrichite Ore" style="rounded=0;whiteSpace=wrap;html=1;fillColor=#ffe6cc;strokeColor=#d79b00;" parent="1" vertex="1">
          <mxGeometry x="400" y="600" width="80" height="40" as="geometry" />
        </mxCell>
        <mxCell id="PVGm662-4inRBWsWVYEp-27" style="edgeStyle=orthogonalEdgeStyle;rounded=0;orthogonalLoop=1;jettySize=auto;html=1;entryX=0;entryY=0.5;entryDx=0;entryDy=0;fillColor=#f8cecc;strokeColor=#b85450;" edge="1" parent="1" source="m7AmhTVpTq-Uz_7KJyDs-69" target="PVGm662-4inRBWsWVYEp-23">
          <mxGeometry relative="1" as="geometry" />
        </mxCell>
        <mxCell id="m7AmhTVpTq-Uz_7KJyDs-69" value="Banded Iron Ore" style="rounded=0;whiteSpace=wrap;html=1;fillColor=#f8cecc;strokeColor=#b85450;" parent="1" vertex="1">
          <mxGeometry x="400" y="720" width="80" height="40" as="geometry" />
        </mxCell>
        <mxCell id="PVGm662-4inRBWsWVYEp-100" style="edgeStyle=orthogonalEdgeStyle;rounded=0;orthogonalLoop=1;jettySize=auto;html=1;entryX=0;entryY=0.25;entryDx=0;entryDy=0;" edge="1" parent="1" source="m7AmhTVpTq-Uz_7KJyDs-42" target="PVGm662-4inRBWsWVYEp-67">
          <mxGeometry relative="1" as="geometry">
            <mxPoint x="1000" y="650" as="targetPoint" />
            <Array as="points">
              <mxPoint x="860" y="730" />
            </Array>
          </mxGeometry>
        </mxCell>
        <mxCell id="PVGm662-4inRBWsWVYEp-101" style="edgeStyle=orthogonalEdgeStyle;rounded=0;orthogonalLoop=1;jettySize=auto;html=1;entryX=0;entryY=0.25;entryDx=0;entryDy=0;" edge="1" parent="1" source="m7AmhTVpTq-Uz_7KJyDs-42" target="PVGm662-4inRBWsWVYEp-61">
          <mxGeometry relative="1" as="geometry">
            <mxPoint x="890" y="460" as="targetPoint" />
            <Array as="points">
              <mxPoint x="860" y="490" />
            </Array>
          </mxGeometry>
        </mxCell>
        <mxCell id="m7AmhTVpTq-Uz_7KJyDs-42" value="Limestone Rubble" style="rounded=0;whiteSpace=wrap;html=1;" parent="1" vertex="1">
          <mxGeometry x="820" y="920" width="80" height="40" as="geometry" />
        </mxCell>
        <mxCell id="PVGm662-4inRBWsWVYEp-116" style="edgeStyle=orthogonalEdgeStyle;rounded=0;orthogonalLoop=1;jettySize=auto;html=1;entryX=0;entryY=0.5;entryDx=0;entryDy=0;fillColor=#f5f5f5;strokeColor=#666666;" edge="1" parent="1" source="PVGm662-4inRBWsWVYEp-1" target="PVGm662-4inRBWsWVYEp-108">
          <mxGeometry relative="1" as="geometry" />
        </mxCell>
        <mxCell id="PVGm662-4inRBWsWVYEp-1" value="Coal Ore" style="rounded=0;whiteSpace=wrap;html=1;fillColor=#f5f5f5;strokeColor=#666666;fontColor=#333333;" vertex="1" parent="1">
          <mxGeometry x="400" y="120" width="80" height="40" as="geometry" />
        </mxCell>
        <mxCell id="PVGm662-4inRBWsWVYEp-62" style="edgeStyle=orthogonalEdgeStyle;rounded=0;orthogonalLoop=1;jettySize=auto;html=1;entryX=0;entryY=0.25;entryDx=0;entryDy=0;fillColor=#dae8fc;strokeColor=#6c8ebf;" edge="1" parent="1" source="PVGm662-4inRBWsWVYEp-13" target="PVGm662-4inRBWsWVYEp-48">
          <mxGeometry relative="1" as="geometry">
            <Array as="points">
              <mxPoint x="700" y="490" />
            </Array>
          </mxGeometry>
        </mxCell>
        <mxCell id="PVGm662-4inRBWsWVYEp-13" value="Water" style="rounded=0;whiteSpace=wrap;html=1;fillColor=#dae8fc;strokeColor=#6c8ebf;" vertex="1" parent="1">
          <mxGeometry x="660" y="920" width="80" height="40" as="geometry" />
        </mxCell>
        <mxCell id="PVGm662-4inRBWsWVYEp-24" style="edgeStyle=orthogonalEdgeStyle;rounded=0;orthogonalLoop=1;jettySize=auto;html=1;entryX=0;entryY=0.75;entryDx=0;entryDy=0;exitX=0.5;exitY=1;exitDx=0;exitDy=0;fillColor=#f5f5f5;strokeColor=#666666;" edge="1" parent="1" source="PVGm662-4inRBWsWVYEp-15" target="PVGm662-4inRBWsWVYEp-21">
          <mxGeometry relative="1" as="geometry">
            <mxPoint x="520" y="440" as="sourcePoint" />
            <Array as="points">
              <mxPoint x="520" y="510" />
            </Array>
          </mxGeometry>
        </mxCell>
        <mxCell id="PVGm662-4inRBWsWVYEp-25" style="edgeStyle=orthogonalEdgeStyle;rounded=0;orthogonalLoop=1;jettySize=auto;html=1;entryX=0;entryY=0.75;entryDx=0;entryDy=0;exitX=0.5;exitY=1;exitDx=0;exitDy=0;fillColor=#f5f5f5;strokeColor=#666666;" edge="1" parent="1" source="PVGm662-4inRBWsWVYEp-15" target="PVGm662-4inRBWsWVYEp-22">
          <mxGeometry relative="1" as="geometry">
            <mxPoint x="520" y="440" as="sourcePoint" />
            <Array as="points">
              <mxPoint x="520" y="630" />
            </Array>
          </mxGeometry>
        </mxCell>
        <mxCell id="PVGm662-4inRBWsWVYEp-26" style="edgeStyle=orthogonalEdgeStyle;rounded=0;orthogonalLoop=1;jettySize=auto;html=1;entryX=0;entryY=0.75;entryDx=0;entryDy=0;exitX=0.5;exitY=1;exitDx=0;exitDy=0;fillColor=#f5f5f5;strokeColor=#666666;" edge="1" parent="1" source="PVGm662-4inRBWsWVYEp-15" target="PVGm662-4inRBWsWVYEp-23">
          <mxGeometry relative="1" as="geometry">
            <mxPoint x="520" y="440" as="sourcePoint" />
            <Array as="points">
              <mxPoint x="520" y="750" />
            </Array>
          </mxGeometry>
        </mxCell>
        <mxCell id="PVGm662-4inRBWsWVYEp-154" style="edgeStyle=orthogonalEdgeStyle;rounded=0;orthogonalLoop=1;jettySize=auto;html=1;entryX=0;entryY=1;entryDx=0;entryDy=0;fillColor=#f5f5f5;strokeColor=#666666;" edge="1" parent="1">
          <mxGeometry relative="1" as="geometry">
            <mxPoint x="520.0000000000002" y="829.9999999999998" as="sourcePoint" />
            <mxPoint x="560" y="390" as="targetPoint" />
            <Array as="points">
              <mxPoint x="520" y="390" />
            </Array>
          </mxGeometry>
        </mxCell>
        <mxCell id="PVGm662-4inRBWsWVYEp-183" style="edgeStyle=orthogonalEdgeStyle;rounded=0;orthogonalLoop=1;jettySize=auto;html=1;fillColor=#f5f5f5;strokeColor=#666666;entryX=0;entryY=0.75;entryDx=0;entryDy=0;" edge="1" parent="1" source="PVGm662-4inRBWsWVYEp-15" target="PVGm662-4inRBWsWVYEp-180">
          <mxGeometry relative="1" as="geometry">
            <mxPoint x="920" y="150" as="targetPoint" />
            <Array as="points">
              <mxPoint x="520" y="230" />
            </Array>
          </mxGeometry>
        </mxCell>
        <mxCell id="PVGm662-4inRBWsWVYEp-15" value="Stamp Mill (Powered)" style="rounded=0;whiteSpace=wrap;html=1;fillColor=#f5f5f5;fontColor=#333333;strokeColor=#666666;" vertex="1" parent="1">
          <mxGeometry x="480" y="840" width="80" height="40" as="geometry" />
        </mxCell>
        <mxCell id="PVGm662-4inRBWsWVYEp-54" style="edgeStyle=orthogonalEdgeStyle;rounded=0;orthogonalLoop=1;jettySize=auto;html=1;entryX=0;entryY=0.5;entryDx=0;entryDy=0;fillColor=#e1d5e7;strokeColor=#9673a6;" edge="1" parent="1" source="PVGm662-4inRBWsWVYEp-21" target="PVGm662-4inRBWsWVYEp-48">
          <mxGeometry relative="1" as="geometry" />
        </mxCell>
        <mxCell id="PVGm662-4inRBWsWVYEp-21" value="Galena Ore Sand" style="rounded=0;whiteSpace=wrap;html=1;fillColor=#e1d5e7;strokeColor=#9673a6;" vertex="1" parent="1">
          <mxGeometry x="560" y="480" width="80" height="40" as="geometry" />
        </mxCell>
        <mxCell id="PVGm662-4inRBWsWVYEp-55" style="edgeStyle=orthogonalEdgeStyle;rounded=0;orthogonalLoop=1;jettySize=auto;html=1;entryX=0;entryY=0.5;entryDx=0;entryDy=0;fillColor=#ffe6cc;strokeColor=#d79b00;" edge="1" parent="1" source="PVGm662-4inRBWsWVYEp-22" target="PVGm662-4inRBWsWVYEp-49">
          <mxGeometry relative="1" as="geometry" />
        </mxCell>
        <mxCell id="PVGm662-4inRBWsWVYEp-22" value="&lt;span id=&quot;ref234210&quot;&gt;&lt;/span&gt;Chalcotrichite Ore Sand" style="rounded=0;whiteSpace=wrap;html=1;fillColor=#ffe6cc;strokeColor=#d79b00;" vertex="1" parent="1">
          <mxGeometry x="560" y="600" width="80" height="40" as="geometry" />
        </mxCell>
        <mxCell id="PVGm662-4inRBWsWVYEp-56" style="edgeStyle=orthogonalEdgeStyle;rounded=0;orthogonalLoop=1;jettySize=auto;html=1;entryX=0;entryY=0.5;entryDx=0;entryDy=0;fillColor=#f8cecc;strokeColor=#b85450;" edge="1" parent="1" source="PVGm662-4inRBWsWVYEp-23" target="PVGm662-4inRBWsWVYEp-50">
          <mxGeometry relative="1" as="geometry" />
        </mxCell>
        <mxCell id="PVGm662-4inRBWsWVYEp-23" value="Banded Iron Ore Sand" style="rounded=0;whiteSpace=wrap;html=1;fillColor=#f8cecc;strokeColor=#b85450;" vertex="1" parent="1">
          <mxGeometry x="560" y="720" width="80" height="40" as="geometry" />
        </mxCell>
        <mxCell id="PVGm662-4inRBWsWVYEp-30" value="Stamp Sand" style="rounded=0;whiteSpace=wrap;html=1;" vertex="1" parent="1">
          <mxGeometry x="640" y="280" width="80" height="40" as="geometry" />
        </mxCell>
        <mxCell id="PVGm662-4inRBWsWVYEp-51" style="edgeStyle=orthogonalEdgeStyle;rounded=0;orthogonalLoop=1;jettySize=auto;html=1;entryX=0;entryY=0.75;entryDx=0;entryDy=0;fillColor=#f5f5f5;strokeColor=#666666;" edge="1" parent="1" source="PVGm662-4inRBWsWVYEp-47" target="PVGm662-4inRBWsWVYEp-50">
          <mxGeometry relative="1" as="geometry" />
        </mxCell>
        <mxCell id="PVGm662-4inRBWsWVYEp-52" style="edgeStyle=orthogonalEdgeStyle;rounded=0;orthogonalLoop=1;jettySize=auto;html=1;entryX=0;entryY=0.75;entryDx=0;entryDy=0;fillColor=#f5f5f5;strokeColor=#666666;" edge="1" parent="1" source="PVGm662-4inRBWsWVYEp-47" target="PVGm662-4inRBWsWVYEp-49">
          <mxGeometry relative="1" as="geometry" />
        </mxCell>
        <mxCell id="PVGm662-4inRBWsWVYEp-53" style="edgeStyle=orthogonalEdgeStyle;rounded=0;orthogonalLoop=1;jettySize=auto;html=1;entryX=0;entryY=0.75;entryDx=0;entryDy=0;fillColor=#f5f5f5;strokeColor=#666666;" edge="1" parent="1" source="PVGm662-4inRBWsWVYEp-47" target="PVGm662-4inRBWsWVYEp-48">
          <mxGeometry relative="1" as="geometry" />
        </mxCell>
        <mxCell id="PVGm662-4inRBWsWVYEp-59" style="edgeStyle=orthogonalEdgeStyle;rounded=0;orthogonalLoop=1;jettySize=auto;html=1;entryX=0.5;entryY=1;entryDx=0;entryDy=0;fillColor=#f5f5f5;strokeColor=#666666;" edge="1" parent="1" source="PVGm662-4inRBWsWVYEp-47" target="PVGm662-4inRBWsWVYEp-30">
          <mxGeometry relative="1" as="geometry">
            <Array as="points" />
          </mxGeometry>
        </mxCell>
        <mxCell id="PVGm662-4inRBWsWVYEp-47" value="Vanning&amp;nbsp; Concentrator" style="rounded=0;whiteSpace=wrap;html=1;fillColor=#f5f5f5;fontColor=#333333;strokeColor=#666666;" vertex="1" parent="1">
          <mxGeometry x="640" y="840" width="80" height="40" as="geometry" />
        </mxCell>
        <mxCell id="PVGm662-4inRBWsWVYEp-72" style="edgeStyle=orthogonalEdgeStyle;rounded=0;orthogonalLoop=1;jettySize=auto;html=1;entryX=0;entryY=0.5;entryDx=0;entryDy=0;fillColor=#e1d5e7;strokeColor=#9673a6;" edge="1" parent="1" source="PVGm662-4inRBWsWVYEp-48" target="PVGm662-4inRBWsWVYEp-61">
          <mxGeometry relative="1" as="geometry" />
        </mxCell>
        <mxCell id="PVGm662-4inRBWsWVYEp-91" style="edgeStyle=orthogonalEdgeStyle;rounded=0;orthogonalLoop=1;jettySize=auto;html=1;entryX=0.5;entryY=0;entryDx=0;entryDy=0;" edge="1" parent="1" source="PVGm662-4inRBWsWVYEp-48" target="PVGm662-4inRBWsWVYEp-90">
          <mxGeometry relative="1" as="geometry">
            <Array as="points">
              <mxPoint x="760" y="520" />
              <mxPoint x="760" y="520" />
            </Array>
          </mxGeometry>
        </mxCell>
        <mxCell id="PVGm662-4inRBWsWVYEp-48" value="Galena Sand" style="rounded=0;whiteSpace=wrap;html=1;fillColor=#e1d5e7;strokeColor=#9673a6;" vertex="1" parent="1">
          <mxGeometry x="720" y="480" width="80" height="40" as="geometry" />
        </mxCell>
        <mxCell id="PVGm662-4inRBWsWVYEp-73" style="edgeStyle=orthogonalEdgeStyle;rounded=0;orthogonalLoop=1;jettySize=auto;html=1;entryX=0;entryY=0.5;entryDx=0;entryDy=0;fillColor=#ffe6cc;strokeColor=#d79b00;" edge="1" parent="1" source="PVGm662-4inRBWsWVYEp-49" target="PVGm662-4inRBWsWVYEp-66">
          <mxGeometry relative="1" as="geometry" />
        </mxCell>
        <mxCell id="PVGm662-4inRBWsWVYEp-93" style="edgeStyle=orthogonalEdgeStyle;rounded=0;orthogonalLoop=1;jettySize=auto;html=1;entryX=0.5;entryY=0;entryDx=0;entryDy=0;" edge="1" parent="1" source="PVGm662-4inRBWsWVYEp-49" target="PVGm662-4inRBWsWVYEp-92">
          <mxGeometry relative="1" as="geometry">
            <Array as="points">
              <mxPoint x="760" y="650" />
              <mxPoint x="760" y="650" />
            </Array>
          </mxGeometry>
        </mxCell>
        <mxCell id="PVGm662-4inRBWsWVYEp-49" value="&lt;span id=&quot;ref234210&quot;&gt;&lt;/span&gt;Chalcotrichite Sand" style="rounded=0;whiteSpace=wrap;html=1;fillColor=#ffe6cc;strokeColor=#d79b00;" vertex="1" parent="1">
          <mxGeometry x="720" y="600" width="80" height="40" as="geometry" />
        </mxCell>
        <mxCell id="PVGm662-4inRBWsWVYEp-74" style="edgeStyle=orthogonalEdgeStyle;rounded=0;orthogonalLoop=1;jettySize=auto;html=1;entryX=0;entryY=0.5;entryDx=0;entryDy=0;fillColor=#f8cecc;strokeColor=#b85450;" edge="1" parent="1" source="PVGm662-4inRBWsWVYEp-50" target="PVGm662-4inRBWsWVYEp-67">
          <mxGeometry relative="1" as="geometry" />
        </mxCell>
        <mxCell id="PVGm662-4inRBWsWVYEp-95" style="edgeStyle=orthogonalEdgeStyle;rounded=0;orthogonalLoop=1;jettySize=auto;html=1;entryX=0.5;entryY=0;entryDx=0;entryDy=0;" edge="1" parent="1" source="PVGm662-4inRBWsWVYEp-50" target="PVGm662-4inRBWsWVYEp-94">
          <mxGeometry relative="1" as="geometry">
            <Array as="points">
              <mxPoint x="760" y="760" />
              <mxPoint x="760" y="760" />
            </Array>
          </mxGeometry>
        </mxCell>
        <mxCell id="PVGm662-4inRBWsWVYEp-50" value="Banded Iron Sand" style="rounded=0;whiteSpace=wrap;html=1;fillColor=#f8cecc;strokeColor=#b85450;" vertex="1" parent="1">
          <mxGeometry x="720" y="720" width="80" height="40" as="geometry" />
        </mxCell>
        <mxCell id="PVGm662-4inRBWsWVYEp-61" value="Lead Ingot" style="rounded=0;whiteSpace=wrap;html=1;fillColor=#e1d5e7;strokeColor=#9673a6;" vertex="1" parent="1">
          <mxGeometry x="880" y="480" width="80" height="40" as="geometry" />
        </mxCell>
        <mxCell id="PVGm662-4inRBWsWVYEp-69" style="edgeStyle=orthogonalEdgeStyle;rounded=0;orthogonalLoop=1;jettySize=auto;html=1;entryX=0;entryY=0.75;entryDx=0;entryDy=0;fillColor=#f5f5f5;strokeColor=#666666;" edge="1" parent="1" source="PVGm662-4inRBWsWVYEp-65" target="PVGm662-4inRBWsWVYEp-67">
          <mxGeometry relative="1" as="geometry" />
        </mxCell>
        <mxCell id="PVGm662-4inRBWsWVYEp-70" style="edgeStyle=orthogonalEdgeStyle;rounded=0;orthogonalLoop=1;jettySize=auto;html=1;entryX=0;entryY=0.75;entryDx=0;entryDy=0;fillColor=#f5f5f5;strokeColor=#666666;" edge="1" parent="1" source="PVGm662-4inRBWsWVYEp-65" target="PVGm662-4inRBWsWVYEp-66">
          <mxGeometry relative="1" as="geometry" />
        </mxCell>
        <mxCell id="PVGm662-4inRBWsWVYEp-71" style="edgeStyle=orthogonalEdgeStyle;rounded=0;orthogonalLoop=1;jettySize=auto;html=1;entryX=0;entryY=0.75;entryDx=0;entryDy=0;fillColor=#f5f5f5;strokeColor=#666666;" edge="1" parent="1" source="PVGm662-4inRBWsWVYEp-65" target="PVGm662-4inRBWsWVYEp-61">
          <mxGeometry relative="1" as="geometry" />
        </mxCell>
        <mxCell id="PVGm662-4inRBWsWVYEp-128" style="edgeStyle=orthogonalEdgeStyle;rounded=0;orthogonalLoop=1;jettySize=auto;html=1;entryX=0.5;entryY=1;entryDx=0;entryDy=0;fillColor=#f5f5f5;strokeColor=#666666;" edge="1" parent="1" source="PVGm662-4inRBWsWVYEp-65" target="PVGm662-4inRBWsWVYEp-127">
          <mxGeometry relative="1" as="geometry" />
        </mxCell>
        <mxCell id="PVGm662-4inRBWsWVYEp-65" value="Blast Furnace (Smelting)" style="rounded=0;whiteSpace=wrap;html=1;fillColor=#f5f5f5;fontColor=#333333;strokeColor=#666666;" vertex="1" parent="1">
          <mxGeometry x="800" y="840" width="80" height="40" as="geometry" />
        </mxCell>
        <mxCell id="PVGm662-4inRBWsWVYEp-156" style="edgeStyle=orthogonalEdgeStyle;rounded=0;orthogonalLoop=1;jettySize=auto;html=1;entryX=0;entryY=0.75;entryDx=0;entryDy=0;fillColor=#ffe6cc;strokeColor=#d79b00;" edge="1" parent="1" source="PVGm662-4inRBWsWVYEp-66" target="PVGm662-4inRBWsWVYEp-150">
          <mxGeometry relative="1" as="geometry">
            <Array as="points">
              <mxPoint x="980" y="620" />
              <mxPoint x="980" y="390" />
            </Array>
          </mxGeometry>
        </mxCell>
        <mxCell id="PVGm662-4inRBWsWVYEp-66" value="Copper Ingot" style="rounded=0;whiteSpace=wrap;html=1;fillColor=#ffe6cc;strokeColor=#d79b00;" vertex="1" parent="1">
          <mxGeometry x="880" y="600" width="80" height="40" as="geometry" />
        </mxCell>
        <mxCell id="PVGm662-4inRBWsWVYEp-76" style="edgeStyle=orthogonalEdgeStyle;rounded=0;orthogonalLoop=1;jettySize=auto;html=1;entryX=0;entryY=0.25;entryDx=0;entryDy=0;fillColor=#f8cecc;strokeColor=#b85450;" edge="1" parent="1" source="PVGm662-4inRBWsWVYEp-67" target="PVGm662-4inRBWsWVYEp-78">
          <mxGeometry relative="1" as="geometry">
            <mxPoint x="1000" y="619.9999999999998" as="targetPoint" />
            <Array as="points">
              <mxPoint x="980" y="740" />
              <mxPoint x="980" y="690" />
            </Array>
          </mxGeometry>
        </mxCell>
        <mxCell id="PVGm662-4inRBWsWVYEp-82" style="edgeStyle=orthogonalEdgeStyle;rounded=0;orthogonalLoop=1;jettySize=auto;html=1;entryX=0;entryY=0.5;entryDx=0;entryDy=0;fillColor=#f8cecc;strokeColor=#b85450;" edge="1" parent="1" source="PVGm662-4inRBWsWVYEp-67" target="PVGm662-4inRBWsWVYEp-79">
          <mxGeometry relative="1" as="geometry">
            <Array as="points">
              <mxPoint x="980" y="740" />
              <mxPoint x="980" y="780" />
            </Array>
          </mxGeometry>
        </mxCell>
        <mxCell id="PVGm662-4inRBWsWVYEp-67" value="Pig Iron Ingot" style="rounded=0;whiteSpace=wrap;html=1;fillColor=#f8cecc;strokeColor=#b85450;" vertex="1" parent="1">
          <mxGeometry x="880" y="720" width="80" height="40" as="geometry" />
        </mxCell>
        <mxCell id="PVGm662-4inRBWsWVYEp-80" style="edgeStyle=orthogonalEdgeStyle;rounded=0;orthogonalLoop=1;jettySize=auto;html=1;fillColor=#f5f5f5;strokeColor=#666666;" edge="1" parent="1" source="PVGm662-4inRBWsWVYEp-77" target="PVGm662-4inRBWsWVYEp-79">
          <mxGeometry relative="1" as="geometry">
            <Array as="points">
              <mxPoint x="1000" y="790" />
            </Array>
          </mxGeometry>
        </mxCell>
        <mxCell id="PVGm662-4inRBWsWVYEp-81" style="edgeStyle=orthogonalEdgeStyle;rounded=0;orthogonalLoop=1;jettySize=auto;html=1;entryX=0;entryY=0.75;entryDx=0;entryDy=0;fillColor=#f5f5f5;strokeColor=#666666;" edge="1" parent="1" source="PVGm662-4inRBWsWVYEp-77" target="PVGm662-4inRBWsWVYEp-78">
          <mxGeometry relative="1" as="geometry">
            <Array as="points">
              <mxPoint x="1000" y="710" />
            </Array>
          </mxGeometry>
        </mxCell>
        <mxCell id="PVGm662-4inRBWsWVYEp-77" value="Bessemer Converter" style="rounded=0;whiteSpace=wrap;html=1;fillColor=#f5f5f5;fontColor=#333333;strokeColor=#666666;" vertex="1" parent="1">
          <mxGeometry x="960" y="840" width="80" height="40" as="geometry" />
        </mxCell>
        <mxCell id="PVGm662-4inRBWsWVYEp-78" value="Wrought Iron Ingot" style="rounded=0;whiteSpace=wrap;html=1;fillColor=#f8cecc;strokeColor=#b85450;" vertex="1" parent="1">
          <mxGeometry x="1040" y="680" width="80" height="40" as="geometry" />
        </mxCell>
        <mxCell id="PVGm662-4inRBWsWVYEp-79" value="Steel Ingot" style="rounded=0;whiteSpace=wrap;html=1;fillColor=#f8cecc;strokeColor=#b85450;" vertex="1" parent="1">
          <mxGeometry x="1040" y="760" width="80" height="40" as="geometry" />
        </mxCell>
        <mxCell id="PVGm662-4inRBWsWVYEp-168" style="edgeStyle=orthogonalEdgeStyle;rounded=0;orthogonalLoop=1;jettySize=auto;html=1;entryX=0;entryY=0.5;entryDx=0;entryDy=0;fillColor=#fad9d5;strokeColor=#ae4132;" edge="1" parent="1" source="PVGm662-4inRBWsWVYEp-83" target="PVGm662-4inRBWsWVYEp-166">
          <mxGeometry relative="1" as="geometry" />
        </mxCell>
        <mxCell id="PVGm662-4inRBWsWVYEp-83" value="Redstone Ore" style="rounded=0;whiteSpace=wrap;html=1;fillColor=#fad9d5;strokeColor=#ae4132;" vertex="1" parent="1">
          <mxGeometry x="400" y="200" width="80" height="40" as="geometry" />
        </mxCell>
        <mxCell id="PVGm662-4inRBWsWVYEp-90" value="Latenecite Sand" style="rounded=0;whiteSpace=wrap;html=1;" vertex="1" parent="1">
          <mxGeometry x="720" y="540" width="80" height="40" as="geometry" />
        </mxCell>
        <mxCell id="PVGm662-4inRBWsWVYEp-92" value="Gold Nugget" style="rounded=0;whiteSpace=wrap;html=1;" vertex="1" parent="1">
          <mxGeometry x="720" y="660" width="80" height="40" as="geometry" />
        </mxCell>
        <mxCell id="PVGm662-4inRBWsWVYEp-94" value="Heavy Mineral Sands" style="rounded=0;whiteSpace=wrap;html=1;" vertex="1" parent="1">
          <mxGeometry x="720" y="780" width="80" height="40" as="geometry" />
        </mxCell>
        <mxCell id="PVGm662-4inRBWsWVYEp-185" style="edgeStyle=orthogonalEdgeStyle;rounded=0;orthogonalLoop=1;jettySize=auto;html=1;entryX=0;entryY=0.25;entryDx=0;entryDy=0;fillColor=#f5f5f5;strokeColor=#666666;" edge="1" parent="1" source="PVGm662-4inRBWsWVYEp-103" target="PVGm662-4inRBWsWVYEp-184">
          <mxGeometry relative="1" as="geometry" />
        </mxCell>
        <mxCell id="PVGm662-4inRBWsWVYEp-187" style="edgeStyle=orthogonalEdgeStyle;rounded=0;orthogonalLoop=1;jettySize=auto;html=1;entryX=0;entryY=0.5;entryDx=0;entryDy=0;fillColor=#f5f5f5;strokeColor=#666666;" edge="1" parent="1" source="PVGm662-4inRBWsWVYEp-103" target="PVGm662-4inRBWsWVYEp-121">
          <mxGeometry relative="1" as="geometry" />
        </mxCell>
        <mxCell id="PVGm662-4inRBWsWVYEp-103" value="Coke Oven" style="rounded=0;whiteSpace=wrap;html=1;fillColor=#f5f5f5;fontColor=#333333;strokeColor=#666666;" vertex="1" parent="1">
          <mxGeometry x="640" y="-120" width="80" height="40" as="geometry" />
        </mxCell>
        <mxCell id="PVGm662-4inRBWsWVYEp-114" style="edgeStyle=orthogonalEdgeStyle;rounded=0;orthogonalLoop=1;jettySize=auto;html=1;entryX=0;entryY=0.5;entryDx=0;entryDy=0;" edge="1" parent="1" source="PVGm662-4inRBWsWVYEp-104" target="PVGm662-4inRBWsWVYEp-109">
          <mxGeometry relative="1" as="geometry" />
        </mxCell>
        <mxCell id="PVGm662-4inRBWsWVYEp-104" value="Nether Quartz Ore" style="rounded=0;whiteSpace=wrap;html=1;" vertex="1" parent="1">
          <mxGeometry x="400" y="-40" width="80" height="40" as="geometry" />
        </mxCell>
        <mxCell id="PVGm662-4inRBWsWVYEp-115" style="edgeStyle=orthogonalEdgeStyle;rounded=0;orthogonalLoop=1;jettySize=auto;html=1;entryX=0;entryY=0.5;entryDx=0;entryDy=0;fillColor=#b1ddf0;strokeColor=#10739e;" edge="1" parent="1" source="PVGm662-4inRBWsWVYEp-106" target="PVGm662-4inRBWsWVYEp-110">
          <mxGeometry relative="1" as="geometry" />
        </mxCell>
        <mxCell id="PVGm662-4inRBWsWVYEp-106" value="Lapis Lazuli Ore" style="rounded=0;whiteSpace=wrap;html=1;fillColor=#b1ddf0;strokeColor=#10739e;" vertex="1" parent="1">
          <mxGeometry x="400" y="40" width="80" height="40" as="geometry" />
        </mxCell>
        <mxCell id="PVGm662-4inRBWsWVYEp-111" style="edgeStyle=orthogonalEdgeStyle;rounded=0;orthogonalLoop=1;jettySize=auto;html=1;entryX=0;entryY=0.25;entryDx=0;entryDy=0;fillColor=#f5f5f5;strokeColor=#666666;" edge="1" parent="1" source="PVGm662-4inRBWsWVYEp-107" target="PVGm662-4inRBWsWVYEp-109">
          <mxGeometry relative="1" as="geometry" />
        </mxCell>
        <mxCell id="PVGm662-4inRBWsWVYEp-112" style="edgeStyle=orthogonalEdgeStyle;rounded=0;orthogonalLoop=1;jettySize=auto;html=1;entryX=0;entryY=0.25;entryDx=0;entryDy=0;fillColor=#f5f5f5;strokeColor=#666666;" edge="1" parent="1" source="PVGm662-4inRBWsWVYEp-107" target="PVGm662-4inRBWsWVYEp-110">
          <mxGeometry relative="1" as="geometry" />
        </mxCell>
        <mxCell id="PVGm662-4inRBWsWVYEp-113" style="edgeStyle=orthogonalEdgeStyle;rounded=0;orthogonalLoop=1;jettySize=auto;html=1;entryX=0;entryY=0.25;entryDx=0;entryDy=0;fillColor=#f5f5f5;strokeColor=#666666;" edge="1" parent="1" source="PVGm662-4inRBWsWVYEp-107" target="PVGm662-4inRBWsWVYEp-108">
          <mxGeometry relative="1" as="geometry" />
        </mxCell>
        <mxCell id="PVGm662-4inRBWsWVYEp-176" style="edgeStyle=orthogonalEdgeStyle;rounded=0;orthogonalLoop=1;jettySize=auto;html=1;entryX=0;entryY=0.25;entryDx=0;entryDy=0;fillColor=#f5f5f5;strokeColor=#666666;" edge="1" parent="1" source="PVGm662-4inRBWsWVYEp-107" target="PVGm662-4inRBWsWVYEp-166">
          <mxGeometry relative="1" as="geometry" />
        </mxCell>
        <mxCell id="PVGm662-4inRBWsWVYEp-194" style="edgeStyle=orthogonalEdgeStyle;rounded=0;orthogonalLoop=1;jettySize=auto;html=1;entryX=0;entryY=0.75;entryDx=0;entryDy=0;fillColor=#f5f5f5;strokeColor=#666666;" edge="1" parent="1" source="PVGm662-4inRBWsWVYEp-107" target="PVGm662-4inRBWsWVYEp-192">
          <mxGeometry relative="1" as="geometry" />
        </mxCell>
        <mxCell id="PVGm662-4inRBWsWVYEp-195" style="edgeStyle=orthogonalEdgeStyle;rounded=0;orthogonalLoop=1;jettySize=auto;html=1;entryX=0;entryY=0.75;entryDx=0;entryDy=0;fillColor=#f5f5f5;strokeColor=#666666;" edge="1" parent="1" source="PVGm662-4inRBWsWVYEp-107" target="PVGm662-4inRBWsWVYEp-193">
          <mxGeometry relative="1" as="geometry" />
        </mxCell>
        <mxCell id="PVGm662-4inRBWsWVYEp-107" value="Rock Breaker" style="rounded=0;whiteSpace=wrap;html=1;fillColor=#f5f5f5;fontColor=#333333;strokeColor=#666666;" vertex="1" parent="1">
          <mxGeometry x="480" y="-120" width="80" height="40" as="geometry" />
        </mxCell>
        <mxCell id="PVGm662-4inRBWsWVYEp-186" style="edgeStyle=orthogonalEdgeStyle;rounded=0;orthogonalLoop=1;jettySize=auto;html=1;entryX=0;entryY=0.5;entryDx=0;entryDy=0;fillColor=#f5f5f5;strokeColor=#666666;" edge="1" parent="1" source="PVGm662-4inRBWsWVYEp-108" target="PVGm662-4inRBWsWVYEp-184">
          <mxGeometry relative="1" as="geometry" />
        </mxCell>
        <mxCell id="PVGm662-4inRBWsWVYEp-108" value="Coal" style="rounded=0;whiteSpace=wrap;html=1;fillColor=#f5f5f5;strokeColor=#666666;fontColor=#333333;" vertex="1" parent="1">
          <mxGeometry x="560" y="120" width="80" height="40" as="geometry" />
        </mxCell>
        <mxCell id="PVGm662-4inRBWsWVYEp-109" value="Nether Quartz" style="rounded=0;whiteSpace=wrap;html=1;" vertex="1" parent="1">
          <mxGeometry x="560" y="-40" width="80" height="40" as="geometry" />
        </mxCell>
        <mxCell id="PVGm662-4inRBWsWVYEp-110" value="Lapis Lazuli" style="rounded=0;whiteSpace=wrap;html=1;fillColor=#b1ddf0;strokeColor=#10739e;" vertex="1" parent="1">
          <mxGeometry x="560" y="40" width="80" height="40" as="geometry" />
        </mxCell>
        <mxCell id="PVGm662-4inRBWsWVYEp-121" value="Creosote Oil" style="rounded=0;whiteSpace=wrap;html=1;fillColor=#f5f5f5;strokeColor=#666666;fontColor=#333333;" vertex="1" parent="1">
          <mxGeometry x="720" y="40" width="80" height="40" as="geometry" />
        </mxCell>
        <mxCell id="PVGm662-4inRBWsWVYEp-127" value="Slag" style="rounded=0;whiteSpace=wrap;html=1;" vertex="1" parent="1">
          <mxGeometry x="800" y="280" width="80" height="40" as="geometry" />
        </mxCell>
        <mxCell id="PVGm662-4inRBWsWVYEp-134" style="edgeStyle=orthogonalEdgeStyle;rounded=0;orthogonalLoop=1;jettySize=auto;html=1;entryX=0;entryY=0.75;entryDx=0;entryDy=0;fillColor=#f5f5f5;strokeColor=#666666;" edge="1" parent="1" source="PVGm662-4inRBWsWVYEp-133" target="m7AmhTVpTq-Uz_7KJyDs-69">
          <mxGeometry relative="1" as="geometry" />
        </mxCell>
        <mxCell id="PVGm662-4inRBWsWVYEp-135" style="edgeStyle=orthogonalEdgeStyle;rounded=0;orthogonalLoop=1;jettySize=auto;html=1;entryX=0;entryY=0.75;entryDx=0;entryDy=0;fillColor=#f5f5f5;strokeColor=#666666;" edge="1" parent="1" source="PVGm662-4inRBWsWVYEp-133" target="m7AmhTVpTq-Uz_7KJyDs-57">
          <mxGeometry relative="1" as="geometry" />
        </mxCell>
        <mxCell id="PVGm662-4inRBWsWVYEp-136" style="edgeStyle=orthogonalEdgeStyle;rounded=0;orthogonalLoop=1;jettySize=auto;html=1;entryX=0;entryY=0.75;entryDx=0;entryDy=0;fillColor=#f5f5f5;strokeColor=#666666;" edge="1" parent="1" source="PVGm662-4inRBWsWVYEp-133" target="m7AmhTVpTq-Uz_7KJyDs-56">
          <mxGeometry relative="1" as="geometry" />
        </mxCell>
        <mxCell id="PVGm662-4inRBWsWVYEp-155" style="edgeStyle=orthogonalEdgeStyle;rounded=0;orthogonalLoop=1;jettySize=auto;html=1;entryX=0;entryY=0.75;entryDx=0;entryDy=0;fillColor=#f5f5f5;strokeColor=#666666;" edge="1" parent="1" source="PVGm662-4inRBWsWVYEp-133" target="PVGm662-4inRBWsWVYEp-144">
          <mxGeometry relative="1" as="geometry" />
        </mxCell>
        <mxCell id="PVGm662-4inRBWsWVYEp-165" style="edgeStyle=orthogonalEdgeStyle;rounded=0;orthogonalLoop=1;jettySize=auto;html=1;entryX=0;entryY=0.75;entryDx=0;entryDy=0;fillColor=#f5f5f5;strokeColor=#666666;" edge="1" parent="1" source="PVGm662-4inRBWsWVYEp-133" target="PVGm662-4inRBWsWVYEp-83">
          <mxGeometry relative="1" as="geometry" />
        </mxCell>
        <mxCell id="PVGm662-4inRBWsWVYEp-177" style="edgeStyle=orthogonalEdgeStyle;rounded=0;orthogonalLoop=1;jettySize=auto;html=1;entryX=0;entryY=0.75;entryDx=0;entryDy=0;fillColor=#f5f5f5;strokeColor=#666666;" edge="1" parent="1" source="PVGm662-4inRBWsWVYEp-133" target="PVGm662-4inRBWsWVYEp-1">
          <mxGeometry relative="1" as="geometry" />
        </mxCell>
        <mxCell id="PVGm662-4inRBWsWVYEp-178" style="edgeStyle=orthogonalEdgeStyle;rounded=0;orthogonalLoop=1;jettySize=auto;html=1;entryX=0;entryY=0.75;entryDx=0;entryDy=0;fillColor=#f5f5f5;strokeColor=#666666;" edge="1" parent="1" source="PVGm662-4inRBWsWVYEp-133" target="PVGm662-4inRBWsWVYEp-106">
          <mxGeometry relative="1" as="geometry" />
        </mxCell>
        <mxCell id="PVGm662-4inRBWsWVYEp-179" style="edgeStyle=orthogonalEdgeStyle;rounded=0;orthogonalLoop=1;jettySize=auto;html=1;entryX=0;entryY=0.75;entryDx=0;entryDy=0;fillColor=#f5f5f5;strokeColor=#666666;" edge="1" parent="1" source="PVGm662-4inRBWsWVYEp-133" target="PVGm662-4inRBWsWVYEp-104">
          <mxGeometry relative="1" as="geometry" />
        </mxCell>
        <mxCell id="PVGm662-4inRBWsWVYEp-133" value="Blasting Hammer" style="rounded=0;whiteSpace=wrap;html=1;fillColor=#f5f5f5;fontColor=#333333;strokeColor=#666666;" vertex="1" parent="1">
          <mxGeometry x="320" y="840" width="80" height="40" as="geometry" />
        </mxCell>
        <mxCell id="PVGm662-4inRBWsWVYEp-140" style="edgeStyle=orthogonalEdgeStyle;rounded=0;orthogonalLoop=1;jettySize=auto;html=1;entryX=0;entryY=0.5;entryDx=0;entryDy=0;fillColor=#e1d5e7;strokeColor=#9673a6;" edge="1" parent="1" source="PVGm662-4inRBWsWVYEp-137" target="m7AmhTVpTq-Uz_7KJyDs-56">
          <mxGeometry relative="1" as="geometry" />
        </mxCell>
        <mxCell id="PVGm662-4inRBWsWVYEp-137" value="Galena Deposit" style="rounded=0;whiteSpace=wrap;html=1;fillColor=#e1d5e7;strokeColor=#9673a6;" vertex="1" parent="1">
          <mxGeometry x="240" y="480" width="80" height="40" as="geometry" />
        </mxCell>
        <mxCell id="PVGm662-4inRBWsWVYEp-141" style="edgeStyle=orthogonalEdgeStyle;rounded=0;orthogonalLoop=1;jettySize=auto;html=1;entryX=0;entryY=0.5;entryDx=0;entryDy=0;fillColor=#ffe6cc;strokeColor=#d79b00;" edge="1" parent="1" source="PVGm662-4inRBWsWVYEp-138" target="m7AmhTVpTq-Uz_7KJyDs-57">
          <mxGeometry relative="1" as="geometry" />
        </mxCell>
        <mxCell id="PVGm662-4inRBWsWVYEp-138" value="&lt;span id=&quot;ref234210&quot;&gt;&lt;/span&gt;Chalcotrichite Deposit" style="rounded=0;whiteSpace=wrap;html=1;fillColor=#ffe6cc;strokeColor=#d79b00;" vertex="1" parent="1">
          <mxGeometry x="240" y="600" width="80" height="40" as="geometry" />
        </mxCell>
        <mxCell id="PVGm662-4inRBWsWVYEp-142" style="edgeStyle=orthogonalEdgeStyle;rounded=0;orthogonalLoop=1;jettySize=auto;html=1;entryX=0;entryY=0.5;entryDx=0;entryDy=0;fillColor=#f8cecc;strokeColor=#b85450;" edge="1" parent="1" source="PVGm662-4inRBWsWVYEp-139" target="m7AmhTVpTq-Uz_7KJyDs-69">
          <mxGeometry relative="1" as="geometry" />
        </mxCell>
        <mxCell id="PVGm662-4inRBWsWVYEp-139" value="Banded Iron Deposit" style="rounded=0;whiteSpace=wrap;html=1;fillColor=#f8cecc;strokeColor=#b85450;" vertex="1" parent="1">
          <mxGeometry x="240" y="720" width="80" height="40" as="geometry" />
        </mxCell>
        <mxCell id="PVGm662-4inRBWsWVYEp-143" style="edgeStyle=orthogonalEdgeStyle;rounded=0;orthogonalLoop=1;jettySize=auto;html=1;entryX=0;entryY=0.5;entryDx=0;entryDy=0;fillColor=#fad7ac;strokeColor=#b46504;" edge="1" parent="1" source="PVGm662-4inRBWsWVYEp-144" target="PVGm662-4inRBWsWVYEp-146">
          <mxGeometry relative="1" as="geometry" />
        </mxCell>
        <mxCell id="PVGm662-4inRBWsWVYEp-144" value="Bauxite Ore" style="rounded=0;whiteSpace=wrap;html=1;fillColor=#fad7ac;strokeColor=#b46504;" vertex="1" parent="1">
          <mxGeometry x="400" y="360" width="80" height="40" as="geometry" />
        </mxCell>
        <mxCell id="PVGm662-4inRBWsWVYEp-145" style="edgeStyle=orthogonalEdgeStyle;rounded=0;orthogonalLoop=1;jettySize=auto;html=1;entryX=0;entryY=0.5;entryDx=0;entryDy=0;fillColor=#fad7ac;strokeColor=#b46504;" edge="1" parent="1" source="PVGm662-4inRBWsWVYEp-146" target="PVGm662-4inRBWsWVYEp-149">
          <mxGeometry relative="1" as="geometry" />
        </mxCell>
        <mxCell id="PVGm662-4inRBWsWVYEp-146" value="Bauxite Ore Sand" style="rounded=0;whiteSpace=wrap;html=1;fillColor=#fad7ac;strokeColor=#b46504;" vertex="1" parent="1">
          <mxGeometry x="560" y="360" width="80" height="40" as="geometry" />
        </mxCell>
        <mxCell id="PVGm662-4inRBWsWVYEp-147" style="edgeStyle=orthogonalEdgeStyle;rounded=0;orthogonalLoop=1;jettySize=auto;html=1;entryX=0;entryY=0.5;entryDx=0;entryDy=0;fillColor=#fad7ac;strokeColor=#b46504;" edge="1" parent="1" source="PVGm662-4inRBWsWVYEp-149" target="PVGm662-4inRBWsWVYEp-150">
          <mxGeometry relative="1" as="geometry" />
        </mxCell>
        <mxCell id="PVGm662-4inRBWsWVYEp-148" style="edgeStyle=orthogonalEdgeStyle;rounded=0;orthogonalLoop=1;jettySize=auto;html=1;entryX=0.5;entryY=0;entryDx=0;entryDy=0;" edge="1" parent="1" source="PVGm662-4inRBWsWVYEp-149" target="PVGm662-4inRBWsWVYEp-151">
          <mxGeometry relative="1" as="geometry">
            <Array as="points">
              <mxPoint x="760" y="400" />
              <mxPoint x="760" y="400" />
            </Array>
          </mxGeometry>
        </mxCell>
        <mxCell id="PVGm662-4inRBWsWVYEp-149" value="Bauxite Sand" style="rounded=0;whiteSpace=wrap;html=1;fillColor=#fad7ac;strokeColor=#b46504;" vertex="1" parent="1">
          <mxGeometry x="720" y="360" width="80" height="40" as="geometry" />
        </mxCell>
        <mxCell id="PVGm662-4inRBWsWVYEp-150" value="Duralumin Ingot" style="rounded=0;whiteSpace=wrap;html=1;fillColor=#fad7ac;strokeColor=#b46504;" vertex="1" parent="1">
          <mxGeometry x="1000" y="360" width="80" height="40" as="geometry" />
        </mxCell>
        <mxCell id="PVGm662-4inRBWsWVYEp-151" value="Latenecite Sand" style="rounded=0;whiteSpace=wrap;html=1;" vertex="1" parent="1">
          <mxGeometry x="720" y="420" width="80" height="40" as="geometry" />
        </mxCell>
        <mxCell id="PVGm662-4inRBWsWVYEp-152" style="edgeStyle=orthogonalEdgeStyle;rounded=0;orthogonalLoop=1;jettySize=auto;html=1;entryX=0;entryY=0.5;entryDx=0;entryDy=0;fillColor=#fad7ac;strokeColor=#b46504;" edge="1" parent="1" source="PVGm662-4inRBWsWVYEp-153" target="PVGm662-4inRBWsWVYEp-144">
          <mxGeometry relative="1" as="geometry" />
        </mxCell>
        <mxCell id="PVGm662-4inRBWsWVYEp-153" value="Bauxite Deposit" style="rounded=0;whiteSpace=wrap;html=1;fillColor=#fad7ac;strokeColor=#b46504;" vertex="1" parent="1">
          <mxGeometry x="240" y="360" width="80" height="40" as="geometry" />
        </mxCell>
        <mxCell id="PVGm662-4inRBWsWVYEp-158" style="edgeStyle=orthogonalEdgeStyle;rounded=0;orthogonalLoop=1;jettySize=auto;html=1;entryX=0.5;entryY=1;entryDx=0;entryDy=0;fillColor=#f5f5f5;strokeColor=#666666;" edge="1" parent="1" source="PVGm662-4inRBWsWVYEp-157" target="PVGm662-4inRBWsWVYEp-150">
          <mxGeometry relative="1" as="geometry" />
        </mxCell>
        <mxCell id="PVGm662-4inRBWsWVYEp-157" value="Arc Furnace (Smelting)" style="rounded=0;whiteSpace=wrap;html=1;fillColor=#f5f5f5;fontColor=#333333;strokeColor=#666666;" vertex="1" parent="1">
          <mxGeometry x="1000" y="440" width="80" height="40" as="geometry" />
        </mxCell>
        <mxCell id="PVGm662-4inRBWsWVYEp-160" value="Slag" style="rounded=0;whiteSpace=wrap;html=1;" vertex="1" parent="1">
          <mxGeometry x="1000" y="280" width="80" height="40" as="geometry" />
        </mxCell>
        <mxCell id="PVGm662-4inRBWsWVYEp-164" style="edgeStyle=orthogonalEdgeStyle;rounded=0;orthogonalLoop=1;jettySize=auto;html=1;entryX=0;entryY=0.5;entryDx=0;entryDy=0;fillColor=#fad9d5;strokeColor=#ae4132;" edge="1" parent="1" source="PVGm662-4inRBWsWVYEp-163" target="PVGm662-4inRBWsWVYEp-83">
          <mxGeometry relative="1" as="geometry" />
        </mxCell>
        <mxCell id="PVGm662-4inRBWsWVYEp-163" value="Redstone Deposit" style="rounded=0;whiteSpace=wrap;html=1;fillColor=#fad9d5;strokeColor=#ae4132;" vertex="1" parent="1">
          <mxGeometry x="240" y="200" width="80" height="40" as="geometry" />
        </mxCell>
        <mxCell id="PVGm662-4inRBWsWVYEp-182" style="edgeStyle=orthogonalEdgeStyle;rounded=0;orthogonalLoop=1;jettySize=auto;html=1;entryX=0;entryY=0.5;entryDx=0;entryDy=0;fillColor=#fad9d5;strokeColor=#ae4132;" edge="1" parent="1" source="PVGm662-4inRBWsWVYEp-166" target="PVGm662-4inRBWsWVYEp-180">
          <mxGeometry relative="1" as="geometry" />
        </mxCell>
        <mxCell id="PVGm662-4inRBWsWVYEp-166" value="Redstone Crystal" style="rounded=0;whiteSpace=wrap;html=1;fillColor=#fad9d5;strokeColor=#ae4132;" vertex="1" parent="1">
          <mxGeometry x="560" y="200" width="80" height="40" as="geometry" />
        </mxCell>
        <mxCell id="PVGm662-4inRBWsWVYEp-175" style="edgeStyle=orthogonalEdgeStyle;rounded=0;orthogonalLoop=1;jettySize=auto;html=1;entryX=0;entryY=0.5;entryDx=0;entryDy=0;fillColor=#f5f5f5;strokeColor=#666666;" edge="1" parent="1" source="PVGm662-4inRBWsWVYEp-170" target="PVGm662-4inRBWsWVYEp-1">
          <mxGeometry relative="1" as="geometry" />
        </mxCell>
        <mxCell id="PVGm662-4inRBWsWVYEp-170" value="Coal Deposit" style="rounded=0;whiteSpace=wrap;html=1;fillColor=#f5f5f5;strokeColor=#666666;fontColor=#333333;" vertex="1" parent="1">
          <mxGeometry x="240" y="120" width="80" height="40" as="geometry" />
        </mxCell>
        <mxCell id="PVGm662-4inRBWsWVYEp-174" style="edgeStyle=orthogonalEdgeStyle;rounded=0;orthogonalLoop=1;jettySize=auto;html=1;fillColor=#b1ddf0;strokeColor=#10739e;" edge="1" parent="1" source="PVGm662-4inRBWsWVYEp-171" target="PVGm662-4inRBWsWVYEp-106">
          <mxGeometry relative="1" as="geometry" />
        </mxCell>
        <mxCell id="PVGm662-4inRBWsWVYEp-171" value="Lapis Lazuli Deposit" style="rounded=0;whiteSpace=wrap;html=1;fillColor=#b1ddf0;strokeColor=#10739e;" vertex="1" parent="1">
          <mxGeometry x="240" y="40" width="80" height="40" as="geometry" />
        </mxCell>
        <mxCell id="PVGm662-4inRBWsWVYEp-173" style="edgeStyle=orthogonalEdgeStyle;rounded=0;orthogonalLoop=1;jettySize=auto;html=1;entryX=0;entryY=0.5;entryDx=0;entryDy=0;" edge="1" parent="1" source="PVGm662-4inRBWsWVYEp-172" target="PVGm662-4inRBWsWVYEp-104">
          <mxGeometry relative="1" as="geometry" />
        </mxCell>
        <mxCell id="PVGm662-4inRBWsWVYEp-172" value="Nether Quartz Deposit" style="rounded=0;whiteSpace=wrap;html=1;" vertex="1" parent="1">
          <mxGeometry x="240" y="-40" width="80" height="40" as="geometry" />
        </mxCell>
        <mxCell id="PVGm662-4inRBWsWVYEp-180" value="Redstone Dust" style="rounded=0;whiteSpace=wrap;html=1;fillColor=#fad9d5;strokeColor=#ae4132;" vertex="1" parent="1">
          <mxGeometry x="720" y="200" width="80" height="40" as="geometry" />
        </mxCell>
        <mxCell id="PVGm662-4inRBWsWVYEp-188" style="edgeStyle=orthogonalEdgeStyle;rounded=0;orthogonalLoop=1;jettySize=auto;html=1;entryX=0.5;entryY=1;entryDx=0;entryDy=0;fillColor=#f5f5f5;strokeColor=#666666;" edge="1" parent="1" source="PVGm662-4inRBWsWVYEp-184" target="PVGm662-4inRBWsWVYEp-121">
          <mxGeometry relative="1" as="geometry" />
        </mxCell>
        <mxCell id="PVGm662-4inRBWsWVYEp-184" value="Coal Coke" style="rounded=0;whiteSpace=wrap;html=1;fillColor=#f5f5f5;strokeColor=#666666;fontColor=#333333;" vertex="1" parent="1">
          <mxGeometry x="720" y="120" width="80" height="40" as="geometry" />
        </mxCell>
        <mxCell id="PVGm662-4inRBWsWVYEp-191" style="edgeStyle=orthogonalEdgeStyle;rounded=0;orthogonalLoop=1;jettySize=auto;html=1;entryX=0;entryY=0.5;entryDx=0;entryDy=0;" edge="1" parent="1" source="PVGm662-4inRBWsWVYEp-189" target="PVGm662-4inRBWsWVYEp-190">
          <mxGeometry relative="1" as="geometry" />
        </mxCell>
        <mxCell id="PVGm662-4inRBWsWVYEp-189" value="Limeclay Deposit" style="rounded=0;whiteSpace=wrap;html=1;" vertex="1" parent="1">
          <mxGeometry x="240" y="-200" width="80" height="40" as="geometry" />
        </mxCell>
        <mxCell id="PVGm662-4inRBWsWVYEp-196" style="edgeStyle=orthogonalEdgeStyle;rounded=0;orthogonalLoop=1;jettySize=auto;html=1;entryX=0;entryY=0.5;entryDx=0;entryDy=0;" edge="1" parent="1" source="PVGm662-4inRBWsWVYEp-190" target="PVGm662-4inRBWsWVYEp-192">
          <mxGeometry relative="1" as="geometry" />
        </mxCell>
        <mxCell id="PVGm662-4inRBWsWVYEp-197" style="edgeStyle=orthogonalEdgeStyle;rounded=0;orthogonalLoop=1;jettySize=auto;html=1;exitX=1;exitY=0.5;exitDx=0;exitDy=0;entryX=0;entryY=0.5;entryDx=0;entryDy=0;" edge="1" parent="1" source="PVGm662-4inRBWsWVYEp-190" target="PVGm662-4inRBWsWVYEp-193">
          <mxGeometry relative="1" as="geometry">
            <Array as="points">
              <mxPoint x="540" y="-180" />
              <mxPoint x="540" y="-260" />
            </Array>
          </mxGeometry>
        </mxCell>
        <mxCell id="PVGm662-4inRBWsWVYEp-190" value="Limeclay" style="rounded=0;whiteSpace=wrap;html=1;" vertex="1" parent="1">
          <mxGeometry x="400" y="-200" width="80" height="40" as="geometry" />
        </mxCell>
        <mxCell id="PVGm662-4inRBWsWVYEp-192" value="Fireclay" style="rounded=0;whiteSpace=wrap;html=1;" vertex="1" parent="1">
          <mxGeometry x="560" y="-200" width="80" height="40" as="geometry" />
        </mxCell>
        <mxCell id="PVGm662-4inRBWsWVYEp-193" value="Limestone Rubble" style="rounded=0;whiteSpace=wrap;html=1;" vertex="1" parent="1">
          <mxGeometry x="560" y="-280" width="80" height="40" as="geometry" />
        </mxCell>
      </root>
    </mxGraphModel>
  </diagram>
</mxfile>
